<?xml version="1.0" standalone="no"?>
<!DOCTYPE svg PUBLIC "-//W3C//DTD SVG 20010904//EN"
 "http://www.w3.org/TR/2001/REC-SVG-20010904/DTD/svg10.dtd">
<svg version="1.0" xmlns="http://www.w3.org/2000/svg"
 width="700.000000pt" height="700.000000pt" viewBox="0 0 700.000000 700.000000"
 preserveAspectRatio="xMidYMid meet">
<metadata>
Created by potrace 1.11, written by Peter Selinger 2001-2013
</metadata>
<g transform="translate(0.000000,700.000000) scale(0.100000,-0.100000)"
fill="#000000" stroke="none">
<path d="M437 6346 c-99 -41 -154 -94 -199 -192 l-23 -49 -3 -2200 c-2 -1685
0 -2214 9 -2260 22 -109 103 -204 212 -249 l52 -21 2996 -3 c2715 -2 3000 -1
3050 14 120 35 201 113 243 235 14 39 15 289 13 2264 l-2 2220 -26 55 c-39 82
-90 135 -167 172 l-67 33 -3015 2 -3015 3 -58 -24z"/>
<path d="M1470 1035 c-120 -24 -168 -56 -201 -131 -19 -46 -19 -50 -4 -91 32
-83 83 -120 200 -145 59 -13 3896 -18 4015 -6 148 16 229 63 255 150 14 48 14
52 -11 104 -22 47 -32 57 -87 84 -34 16 -91 34 -127 39 -36 5 -926 9 -2020 9
-1564 0 -1968 -3 -2020 -13z"/>
</g>
</svg>
